<svg xmlns="http://www.w3.org/2000/svg" viewBox="0 0 64 64">
  <rect width="64" height="64" rx="14" fill="#1F6F5F"/>
  <circle cx="32" cy="26" r="10" fill="none" stroke="#6FCF97" stroke-width="2.5"/>
  <path d="M26 22 Q32 18 38 22" fill="none" stroke="#6FCF97" stroke-width="2" stroke-linecap="round"/>
  <circle cx="28.5" cy="25.5" r="1.5" fill="#6FCF97"/>
  <circle cx="35.5" cy="25.5" r="1.5" fill="#6FCF97"/>
  <path d="M29 29.5 Q32 31.5 35 29.5" fill="none" stroke="#6FCF97" stroke-width="1.8" stroke-linecap="round"/>
  <path d="M20 44 Q32 38 44 44" fill="none" stroke="#6FCF97" stroke-width="2.5" stroke-linecap="round"/>
  <rect x="10" y="10" width="8" height="3" rx="1.5" fill="#6FCF97" opacity="0.5"/>
  <rect x="10" y="51" width="8" height="3" rx="1.5" fill="#6FCF97" opacity="0.5"/>
  <rect x="46" y="10" width="8" height="3" rx="1.5" fill="#6FCF97" opacity="0.5"/>
  <rect x="46" y="51" width="8" height="3" rx="1.5" fill="#6FCF97" opacity="0.5"/>
  <rect x="10" y="10" width="3" height="8" rx="1.5" fill="#6FCF97" opacity="0.5"/>
  <rect x="51" y="10" width="3" height="8" rx="1.5" fill="#6FCF97" opacity="0.5"/>
  <rect x="10" y="46" width="3" height="8" rx="1.5" fill="#6FCF97" opacity="0.5"/>
  <rect x="51" y="46" width="3" height="8" rx="1.5" fill="#6FCF97" opacity="0.5"/>
</svg>
